<svg xmlns="http://www.w3.org/2000/svg" viewBox="0 0 64.05 64"><defs><style>.cls-1{fill:#f7f7f8;}.cls-2{fill:none;}.cls-3{fill:#242526;}</style></defs><g id="Layer_2" data-name="Layer 2"><g id="Layer_1-2" data-name="Layer 1"><path class="cls-1" d="M14,1.75H50.57a12,12,0,0,1,12,12l0,36.59a12,12,0,0,1-12,12H14a12,12,0,0,1-12-12V13.77A12,12,0,0,1,14,1.75Z"/><rect class="cls-2" x="0.05" width="64" height="64"/><path class="cls-3" d="M37.58,44.11H27.24a1.25,1.25,0,1,1,0-2.5h9.09v-20A2.3,2.3,0,0,0,34,19.3H16.16a2.29,2.29,0,0,0-2.28,2.29V39.31a2.28,2.28,0,0,0,2.31,2.3h.9a1.25,1.25,0,1,1,0,2.5h-.9a4.81,4.81,0,0,1-4.81-4.8V21.59a4.79,4.79,0,0,1,4.78-4.79H34a4.81,4.81,0,0,1,4.79,4.8V42.86A1.24,1.24,0,0,1,37.58,44.11Z"/><g id="Path_65033" data-name="Path 65033"><path class="cls-3" d="M49.47,44.12H47.68v-2.5h1.78A2.33,2.33,0,0,0,51.1,41a2.3,2.3,0,0,0,.68-1.64V32.58L49.48,25a2.87,2.87,0,0,0-2.68-1.84H41.17a2.32,2.32,0,0,0-2.32,2.32h-2.5a4.84,4.84,0,0,1,4.82-4.82h5.64a5.4,5.4,0,0,1,5,3.56L54.22,32a1.13,1.13,0,0,1,.06.36v6.92a4.8,4.8,0,0,1-4.81,4.81Z"/></g><path class="cls-3" d="M22.17,48.77a6.28,6.28,0,0,1-1.55-.2,5.82,5.82,0,0,1-4.15-4.17,6.92,6.92,0,0,1-.2-1.53A5.92,5.92,0,0,1,22.18,37a5.76,5.76,0,0,1,4.16,1.74,5.86,5.86,0,0,1,1.72,3.92,2,2,0,0,1,0,.25,5.93,5.93,0,0,1-5.91,5.9Zm0-9.31a3.41,3.41,0,0,0-3.41,3.41,3.82,3.82,0,0,0,.13.93,3.36,3.36,0,0,0,2.34,2.35,3.46,3.46,0,0,0,3-.59,3.4,3.4,0,0,0,1.33-2.5,1.23,1.23,0,0,1,0-.19,3.36,3.36,0,0,0-1-2.41A3.27,3.27,0,0,0,22.18,39.46Z"/><g id="Path_65035" data-name="Path 65035"><path class="cls-3" d="M43,48.69H42.9a5.87,5.87,0,1,1,6-5.82v0A5.92,5.92,0,0,1,43,48.69Zm0-9.23A3.37,3.37,0,1,0,43,46.19H43a3.37,3.37,0,1,0,0-6.73Z"/></g><g id="Line_488" data-name="Line 488"><rect class="cls-3" x="37.6" y="31.15" width="15.42" height="2.5"/></g><rect class="cls-2" width="64" height="64"/><rect class="cls-2" x="0.05" width="64" height="64"/></g></g></svg>