<svg xmlns="http://www.w3.org/2000/svg" viewBox="0 0 64 64"><defs><style>.cls-1{fill:#4b2885;}.cls-2{fill:#fcaf17;}.cls-3{fill:none;}</style></defs><g id="Layer_2" data-name="Layer 2"><g id="Layer_1-2" data-name="Layer 1"><path class="cls-1" d="M13.93,1.75h36.6a12,12,0,0,1,12,12l0,36.59a12,12,0,0,1-12,12H13.93a12,12,0,0,1-12-12V13.77A12,12,0,0,1,13.93,1.75Z"/><rect class="cls-1" x="7.09" y="6.93" width="50.28" height="50.28" rx="9.96"/><path class="cls-2" d="M51.15,45.8,45.92,25.1,32,12.53,18.07,25.1,12.85,45.8l10,4.64h7.93v-7S16.1,51.22,20,34c1.35-5.8,7.93-13.34,11.79-15.48.2,0,.2-.18.4-.18h0C36.06,20.07,43,28.16,44.38,34c3.86,17.41-10.83,9.68-10.83,9.68v7h7.93Z"/><rect class="cls-3" width="64" height="64"/><rect class="cls-3" width="64" height="64"/></g></g></svg>