<svg xmlns="http://www.w3.org/2000/svg" viewBox="0 0 64 64"><defs><style>.cls-1{fill:#fbed21;}.cls-2{fill:#fff;}.cls-3{fill:#231f20;}.cls-4{fill:none;}</style></defs><g id="Layer_2" data-name="Layer 2"><g id="Layer_1-2" data-name="Layer 1"><g id="dhl"><g id="Group_143" data-name="Group 143"><rect class="cls-1" x="2.09" y="1.93" width="60.28" height="60.28" rx="11.94"/><g id="flash"><g id="Group_150" data-name="Group 150"><g id="Group_149" data-name="Group 149"><g id="Group_148" data-name="Group 148"><g id="Group_146" data-name="Group 146"><path id="Path_375" data-name="Path 375" class="cls-2" d="M45.85,24.4,37.48,31l3.34.67-4.76,7.71,9.66-8.48-3.41-.63Z"/><path id="Path_376" data-name="Path 376" class="cls-3" d="M35.19,40.4l5.31-8.62L37,31.07l9.57-7.5-4,6.54,3.53.64ZM38,30.86l3.19.65-4.2,6.82L45.28,31,42,30.4l3.12-5.15Z"/></g><path id="Path_377" data-name="Path 377" class="cls-3" d="M41.26,39.18H39.5l1.28-2.9h1.68l-.22.5H41.18l-.3.68h1l-.23.51h-1l-.31.7h1.12Z"/><g id="Group_147" data-name="Group 147"><path id="Path_378" data-name="Path 378" class="cls-3" d="M44.2,39.18h-.74l-.12-1a.63.63,0,0,1,0-.19h0l-.15.2-1,1h-.76l1.59-1.46-.23-1.44h.77l.05.88a1.93,1.93,0,0,1,0,.24h0a1.64,1.64,0,0,1,.21-.25l.87-.88h.71l-1.53,1.44Z"/><path id="Path_379" data-name="Path 379" class="cls-3" d="M45.63,38.16l-.45,1h-.63l1.27-2.9h1c.73,0,1,.31.71.92a1.54,1.54,0,0,1-.65.71,1.86,1.86,0,0,1-.95.26Zm.62-1.41-.41.94h.28a.76.76,0,0,0,.75-.48c.14-.31,0-.46-.34-.46Z"/><path id="Path_380" data-name="Path 380" class="cls-3" d="M49.57,39.18h-.72l-.14-.76a.54.54,0,0,0-.1-.3.19.19,0,0,0-.16-.06h-.18l-.5,1.12h-.63l1.26-2.9h1c.71,0,1,.26.71.78a1.32,1.32,0,0,1-.39.51,1.53,1.53,0,0,1-.63.3v0c.12,0,.2.19.26.44Zm-.74-2.44-.37.83h.32a.75.75,0,0,0,.68-.43c.11-.26,0-.4-.31-.4Z"/><path id="Path_381" data-name="Path 381" class="cls-3" d="M51.62,39.18H49.87l1.27-2.9h1.67l-.22.5h-1l-.3.68h1L52,38H51l-.32.7h1.14Z"/><path id="Path_382" data-name="Path 382" class="cls-3" d="M52.29,38.44a.81.81,0,0,0,.69.29.78.78,0,0,0,.42-.09.4.4,0,0,0,.22-.22.22.22,0,0,0,0-.22c0-.08-.17-.17-.42-.29a.57.57,0,0,1-.32-.83,1.25,1.25,0,0,1,.58-.62,1.91,1.91,0,0,1,.93-.23,1.79,1.79,0,0,1,.69.11l-.25.59a.81.81,0,0,0-.61-.2.75.75,0,0,0-.41.09.43.43,0,0,0-.24.22.26.26,0,0,0,0,.21,1.14,1.14,0,0,0,.36.26c.24.13.39.25.44.39a.62.62,0,0,1,0,.48,1.31,1.31,0,0,1-.59.64,2,2,0,0,1-.95.22,1.39,1.39,0,0,1-.76-.16Z"/><path id="Path_383" data-name="Path 383" class="cls-3" d="M54.64,38.44a.81.81,0,0,0,.69.29.78.78,0,0,0,.42-.09.43.43,0,0,0,.22-.22.22.22,0,0,0,0-.22c0-.08-.17-.17-.42-.29a.57.57,0,0,1-.32-.83,1.21,1.21,0,0,1,.58-.62,1.91,1.91,0,0,1,.93-.23,1.79,1.79,0,0,1,.69.11l-.25.59a1,1,0,0,0-1-.11.43.43,0,0,0-.24.22.26.26,0,0,0,0,.21,1.14,1.14,0,0,0,.36.26c.24.13.39.25.44.39a.62.62,0,0,1,0,.48,1.36,1.36,0,0,1-.59.64,2,2,0,0,1-.95.22,1.39,1.39,0,0,1-.76-.16Z"/><path id="Path_384" data-name="Path 384" class="cls-3" d="M6.46,35.16l2.92-6.78h8.67l-.73,1.76h-6.1l-.4.88H17l-.72,1.53h-6.1L9,35.16Z"/><path id="Path_385" data-name="Path 385" class="cls-3" d="M19.32,28.38,16.4,35.16h9.71l.73-1.7H19.72l2.19-5.08Z"/><path id="Path_386" data-name="Path 386" class="cls-3" d="M30.29,28.38l-2.92,6.78h6.32l-1.13-1.7H30.67L32,30.39l2.89,4.76h2.83l-4.21-6.77Z"/><path id="Path_387" data-name="Path 387" class="cls-3" d="M47.81,28.38l-2.92,6.78h2.58l1.12-2.61H53.1L52,35.16h2.6l2.89-6.78H54.9l-1.15,2.68H49.24l1.15-2.68Z"/></g></g></g></g></g></g></g><rect class="cls-4" width="64" height="64"/><rect class="cls-4" width="64" height="64"/></g></g></svg>