<svg xmlns="http://www.w3.org/2000/svg" viewBox="0 0 64 64"><defs><style>.cls-1{fill:#f7f7f8;}.cls-2{fill:none;}.cls-3{fill:#0c377f;}.cls-3,.cls-4,.cls-5{fill-rule:evenodd;}.cls-4{fill:#bebebe;}.cls-5{fill:#e50013;}</style></defs><g id="Layer_2" data-name="Layer 2"><g id="Layer_1-2" data-name="Layer 1"><path class="cls-1" d="M13.93,1.75h36.6a12,12,0,0,1,12,12l0,36.59a12,12,0,0,1-12,12H13.93a12,12,0,0,1-12-12V13.77A12,12,0,0,1,13.93,1.75Z"/><rect class="cls-2" width="64" height="64"/><g id="Group_32-2" data-name="Group 32-2"><g id="Group_28-2" data-name="Group 28-2"><g id="Group_27-2" data-name="Group 27-2"><g id="iPhone_X_XS_11_Pro_7-3" data-name="iPhone X XS 11 Pro 7-3"><g id="thailand-post-2-2"><g id="Group_215-2-2" data-name="Group 215-2-2"><path id="Path_690-2-2" data-name="Path 690-2-2" class="cls-3" d="M54,43.61a2.18,2.18,0,0,0-.84.14,2,2,0,0,0-.7.62l-.06,0L53,43.21a1.35,1.35,0,0,0,.56.09h1.93a.69.69,0,0,0,.44-.09l-.11,1.16-.09,0c0-.53-.32-.8-1.05-.8l-1,3c0,.12,0,.21,0,.26a.51.51,0,0,0,.21.1l0,.08H52.5l0-.08a.59.59,0,0,0,.49-.41L54,43.61Zm-2.09-.36-.12,1.12-.11,0a.65.65,0,0,0-.29-.6,1.08,1.08,0,0,0-.69-.21,1.14,1.14,0,0,0-.73.23.59.59,0,0,0-.12.2c0,.14,0,.25.28.35s.49.16.74.23a2.13,2.13,0,0,1,.63.25.86.86,0,0,1,.29.41.88.88,0,0,1,0,.51,1.79,1.79,0,0,1-.62.81,2.22,2.22,0,0,1-1.43.53A1.73,1.73,0,0,1,49,47l-.29,0a.34.34,0,0,0-.28.11l.16-1.46.1,0a1,1,0,0,0,1.06,1.21,2.35,2.35,0,0,0,.7-.14,1.08,1.08,0,0,0,.37-.26A1.1,1.1,0,0,0,51,46a.51.51,0,0,0,0-.45.49.49,0,0,0-.25-.17L49.59,45c-.4-.2-.54-.45-.44-.76a1.08,1.08,0,0,1,.12-.24,1.3,1.3,0,0,1,.69-.53,2.07,2.07,0,0,1,.81-.14,2.41,2.41,0,0,1,.54.05l.26,0a.39.39,0,0,0,.31-.15Zm-7,2.32a1.51,1.51,0,0,0,.19.86.79.79,0,0,0,.75.4,1.61,1.61,0,0,0,.6-.15,1.83,1.83,0,0,0,.69-.52,2,2,0,0,0,.4-.72,2.18,2.18,0,0,0,0-1.16.79.79,0,0,0-.32-.49,1,1,0,0,0-.61-.19,1.47,1.47,0,0,0-1,.44,2.26,2.26,0,0,0-.61,1,3.82,3.82,0,0,0-.11.57Zm2-2.32a1.41,1.41,0,0,1,1.33.62,1.57,1.57,0,0,1,.07,1.32l0,.11a2.57,2.57,0,0,1-.93,1.25,2.66,2.66,0,0,1-1.65.57h-.08a1.37,1.37,0,0,1-1.29-.62,1.61,1.61,0,0,1-.07-1.34A2.83,2.83,0,0,1,46.83,43.25ZM42,45a5.46,5.46,0,0,0,1-.36,1.27,1.27,0,0,0,.67-.61.45.45,0,0,0,0-.28c-.06-.12-.26-.18-.61-.18s-.62.11-.69.32L42,45Zm-.1.3a7.21,7.21,0,0,0,1.38-.46c.61-.29,1-.6,1.08-1a.43.43,0,0,0-.1-.48.73.73,0,0,0-.49-.15H41.5l0,.1q.39,0,.27.39l-.89,2.75a.52.52,0,0,1-.52.41l0,.08h1.42l0-.08a.28.28,0,0,1-.25-.12.33.33,0,0,1,0-.29l.38-1.2Zm-6.24,1.14c0,.09,0,.17.12.22a.81.81,0,0,0,.31.06,1.89,1.89,0,0,0,1-.34A2.08,2.08,0,0,0,38,45.29l0-.13A1.15,1.15,0,0,0,37.82,44a1,1,0,0,0-.83-.44.54.54,0,0,0-.57.42l-.8,2.47Zm-1.15.42a.5.5,0,0,0,.48-.4l.87-2.71a.31.31,0,0,0,0-.28.28.28,0,0,0-.25-.11l0-.1h1.53a1.54,1.54,0,0,1,1.42.66,1.62,1.62,0,0,1,.1,1.39,2.38,2.38,0,0,1-.86,1.21A2.22,2.22,0,0,1,36.4,47h-2l0-.13ZM34,44.68l-.94-1-.1-.11a.09.09,0,0,1,0-.09A.13.13,0,0,1,33,43.4l0-.1H31.52l0,.1a.35.35,0,0,1,.24.1.37.37,0,0,1,0,.29l-.88,2.71a.62.62,0,0,1-.51.45l0,.08h1.16l0-.08a.66.66,0,0,1-.24-.11c-.07-.07-.07-.18,0-.34l.88-2.76,1.32,1.47.16.17a.43.43,0,0,1,0,.37l-.27.84a.46.46,0,0,1-.47.36l0,.08H34L34,47c-.24,0-.3-.17-.2-.5l.89-2.75a.36.36,0,0,1,.18-.22.92.92,0,0,1,.27-.08l0-.1H34l0,.1a1.31,1.31,0,0,1,.27.06c.07,0,.08.12,0,.24l-.31,1Zm-5.69.4a1.07,1.07,0,0,1,1,.44l-.05-1.78Zm-.18.31-.75,1.06a1,1,0,0,0-.07.15.25.25,0,0,0,0,.25.21.21,0,0,0,.21.1l0,.08h-1.2l0-.08a.63.63,0,0,0,.52-.36l2-2.76a1.26,1.26,0,0,0,.13-.26c0-.11,0-.17-.09-.17l0-.1h1.31l0,.1c-.11,0-.19.08-.24.23a.41.41,0,0,0,0,.16L30,46.64a.51.51,0,0,0,.07.24.19.19,0,0,0,.14.07l0,.08H28.81l0-.08a.66.66,0,0,0,.45-.41.74.74,0,0,0-.23-.75,1.3,1.3,0,0,0-1-.4Zm-1.29.32-.07-.05a2.94,2.94,0,0,1-.95.84,1.76,1.76,0,0,1-.86.26c-.38,0-.52-.14-.42-.43l.81-2.54a.56.56,0,0,1,.53-.39l0-.1H24.48l0,.1a.3.3,0,0,1,.21.43l-.82,2.54c-.12.39-.32.58-.59.58l0,.08h2.15a.81.81,0,0,1,.47.09l.94-1.42ZM22.63,43.3H24l0,.1a.48.48,0,0,0-.49.39l-.88,2.71a.42.42,0,0,0,0,.31.27.27,0,0,0,.25.14l0,.08H21.43l0-.08c.23,0,.4-.15.49-.45l.86-2.67c.1-.29,0-.43-.21-.43ZM19.3,45.08a1.07,1.07,0,0,1,1,.44l0-1.78Zm-.18.31-.76,1.06-.07.15a.31.31,0,0,0,0,.25.23.23,0,0,0,.21.1l0,.08H17.29l0-.08a.61.61,0,0,0,.51-.36l2-2.76a2.15,2.15,0,0,0,.14-.26c0-.11,0-.17-.09-.17l0-.1h1.3l0,.1c-.11,0-.19.08-.24.23a.78.78,0,0,0,0,.16L21,46.64a.42.42,0,0,0,.07.24.17.17,0,0,0,.13.07l0,.08H19.84l0-.08a.64.64,0,0,0,.45-.41.72.72,0,0,0-.23-.75,1.28,1.28,0,0,0-1-.4Zm-2.22-2c.24,0,.32.1.26.3l-.2.63H15.24l.21-.67c.06-.17.23-.26.51-.26l0-.1h-1.4l0,.1c.24,0,.31.13.23.39l-.89,2.75a.66.66,0,0,1-.2.29.53.53,0,0,1-.32.12l0,.08h1.43l0-.08a.26.26,0,0,1-.26-.16.45.45,0,0,1,0-.34l.58-1.81h1.72l-.61,1.9a.54.54,0,0,1-.55.41l0,.08h1.39l0-.08c-.22-.06-.28-.23-.2-.5l.89-2.75c.05-.17.22-.27.5-.3l0-.1H16.93Zm-4.64.21a2.18,2.18,0,0,0-.84.14,2,2,0,0,0-.7.62l-.06,0,.61-1.12a1.35,1.35,0,0,0,.56.09h1.93a.69.69,0,0,0,.44-.09l-.11,1.16-.09,0c0-.53-.32-.8-1.05-.8l-1,3c0,.12,0,.21,0,.26a.54.54,0,0,0,.2.1l0,.08H10.81l0-.08a.59.59,0,0,0,.49-.41Z"/><path id="Path_691-2-2" data-name="Path 691-2-2" class="cls-3" d="M41.35,42.47h1.71c0-.11.1-.18.11-.29a.34.34,0,0,1-.21-.44h0a.47.47,0,0,1,0-.1c.71-2.14,1.41-4.28,2.12-6.42a1,1,0,0,1,1-.64c.05-.15.09-.3.14-.46H40l4.27.68-2.28,7a.8.8,0,0,1-.59.43,2.58,2.58,0,0,0-.08.26Zm12.38-3.32c-.23.72-.45,1.44-.67,2.15-.36.92-2.46,1-2.55-.29.11-.77.56-1.38,1.74-1.64l1.48-.22Zm.4-2.41c0,.08,0,.16-.05.24.3,0,.39.09.27.35-.17.49-.33,1-.49,1.48l-1.47.26c-.63,0-.94-.22-1-.5A1.42,1.42,0,0,1,52,37.41a1.1,1.1,0,0,1,1.07,0l.14-.41-.81-.29c-2,.39-2.22,2.19-1.37,2.55-2,1-1.86,2.79-.43,3.19a4,4,0,0,0,2-.17,1.8,1.8,0,0,1,1.19.09l.22-.27c-.25-.24-.1-.43,0-.69l1.26-3.88c.11-.35.13-.56.58-.5l.1-.3-1.77.06ZM45.32,37l.09-.29,1.82,0c0,.09,0,.18-.08.26a.88.88,0,0,0-.7.71l-.24.82c1.61-2.13,4.1-2.67,3.65-.43-.36,1.14-.73,2.28-1.09,3.41-.1.32-.24.52.21.68l-.06.26-1.85,0c0-.08,0-.17,0-.24.32,0,.56-.18.73-.65L49,38c.18-1.33-1.09-.61-2.11.44a7.51,7.51,0,0,0-1.24,1.82l-.46,1.46c-.1.34-.17.36.22.47l-.11.29-1.77,0a2.56,2.56,0,0,1,0-.27.83.83,0,0,0,.72-.54l1.32-4.11q.08-.51-.3-.51Zm-2.68-.79H41.27c.1-.28.22-.76.52-.85a4.85,4.85,0,0,1,1.55-.12c-.81.14-1.41.29-.57.57,0,.13-.09.26-.13.4Zm-2,2.92c-.22.72-.44,1.44-.67,2.15-.36.92-2.46,1-2.55-.29.11-.77.56-1.38,1.75-1.64l1.47-.22Zm.41-2.41,1.77-.06-.11.3c-.45-.06-.46.16-.58.51l-1.26,3.88c-.08.25-.23.44,0,.68l-.22.27a1.8,1.8,0,0,0-1.19-.09,3.92,3.92,0,0,1-2,.17c-1.43-.39-1.61-2.22.43-3.19-.85-.36-.61-2.15,1.37-2.55l.8.29c0,.14-.09.27-.13.41a1.12,1.12,0,0,0-1.08,0,1.44,1.44,0,0,0-.61,1.16c.06.28.37.46,1,.51l1.48-.27.48-1.48c.13-.26,0-.37-.27-.35l.06-.24ZM32,36.3l4.81-.75v-.19a.49.49,0,0,0-.35-.24c0-.09,0-.18.05-.27h1.88c0,.09,0,.18-.08.27-.37,0-.68.27-.91.83,0,.21-.36.29-.78.35Zm-4.11,6.15H29.7c0-.08.05-.16.08-.24-.58-.09-.34-.34-.21-.72l.64-1.94a1.19,1.19,0,0,1,.48-.72c.36-.34.43-.56.22-.67-.37-.24-.38-.47,0-.7,1.25-.53,2.55-.54,2.28.59l-1,3c-.57,1.73.74,1.88,2.3.46a.67.67,0,0,1-.53.67l-.06.27,1.86,0a2.25,2.25,0,0,1,.08-.24c-.53,0-.61-.23-.49-.54l1.32-4c.22-.67.45-.58.67-.64,0-.09,0-.18.08-.27l-1.85.05a2.56,2.56,0,0,0,0,.27c.24,0,.33.16.29.41l-1,3c-.62,1.23-2.16,2-1.66.54.29-.94.59-1.88.88-2.82.61-2.63-5.24-1.17-4-.06.14.11.37.18.21.43a2,2,0,0,0-.91,1c-.23.7-.47,1.39-.7,2.09-.14.5-.41.55-.7.54l0,.24Zm-.59-3.33.33-.83-1.24.86Zm-3.14-2,.06-.27H26c0,.09,0,.18-.05.27-.56,0-.62.34-.77.77l-1,3a.83.83,0,0,0,.18.9,1.72,1.72,0,0,0,1.82-.14,1.49,1.49,0,0,0,.49-.68l.41-1.35-2.21,0c.05-.16.09-.32.14-.48.93-.64,1.91-1.25,2.85-1.88,0-.19-.17-.21-.3-.24v-.24h1.8l-.06.24c-.43,0-.52.2-.64.58l-.48,1.43h.64c0,.18-.09.36-.13.54H28l-.51,1.47a1.82,1.82,0,0,1-.86,1,3.09,3.09,0,0,1-3,.05.92.92,0,0,1-.24-1.2c.36-1.11.71-2.22,1.07-3.33.14-.38-.1-.38-.27-.46Zm-5.31,3.63-.3,0c-.11.39-.21.79-.32,1.18a2.85,2.85,0,0,0,1.84.58A2.62,2.62,0,0,0,22.6,41c.36-.71.33-1.51-1-1.87s-1.6-.7-1.16-1.37c.66-.7,2.51-1,2.47.45l.3.09c0-.39.1-.77.16-1.16C20,35.72,18.09,38.9,20.07,39.5c.63.19,1.75.25,1.66,1.19s-.84,1.25-1.68,1.35-1.24-.39-1.22-1.3Zm-4.43-4h1.8l-.06.24c-.52.13-.57.35-.72.8l-1,3.07c-.21.66.2,1.18,1,1.16A1.79,1.79,0,0,0,17,40.89q.83-2.55,1.64-5.1c.2-.58,0-.58-.19-.65l.06-.24h1.8l-.09.3c-.57-.07-.64.47-.77.88l-1.59,4.8a2,2,0,0,1-1.11,1.23,3.14,3.14,0,0,1-2.77.07,1.13,1.13,0,0,1-.44-1.32l1.15-3.3c.12-.42-.15-.45-.35-.56l.09-.22Zm-3.79,5.69h1.72c0-.11.1-.18.11-.29-.36-.15-.2-.43-.11-.69l2.07-6.26a1,1,0,0,1,1-.65c0-.15.09-.3.13-.45H9.3l4.26.67-2.28,7a.78.78,0,0,1-.59.43A2,2,0,0,1,10.61,42.47Z"/></g><g id="Group_216-2-4" data-name="Group 216-2-4"><path id="Path_692-2-4" data-name="Path 692-2-4" class="cls-4" d="M41.47,29.68l.3.6.18-.6Zm-.48-1c.09.18.18.37.28.56h.82c.07-.19.15-.38.22-.56Zm-.49-1,.28.56H42.5c.09-.18.18-.37.28-.56Zm-.48-1,.27.56H43l.34-.56Zm-.49-1c.09.19.18.37.28.56h3.81c.13-.19.26-.38.4-.56Zm-.49-1c.1.19.19.37.28.56h5c.15-.19.31-.38.47-.56Zm15.18-6.32L55.43,18,53,18.45Zm-2.14,1c.4-.2.79-.39,1.18-.56H50.87L48,19.44Zm-1.81,1c.33-.2.66-.38,1-.56H45.91l-2.83.56Zm-1.56,1,.86-.56H41l-.11,0c.1.18.2.36.28.54Zm-1.34,1,.74-.56H41.28a2.66,2.66,0,0,1,.12.56Zm-1.16,1,.64-.56H41.4a1.51,1.51,0,0,1-.16.56Zm-7.45.84a1,1,0,0,1,.07.15H45.2c.19-.19.37-.38.56-.56H40.92a2.62,2.62,0,0,1-2.16.41Z"/><path id="Path_693-2-4" data-name="Path 693-2-4" class="cls-5" d="M38.57,16.94l2.11,3.55L58,17Z"/><path id="Path_694-2-4" data-name="Path 694-2-4" class="cls-3" d="M7.08,16.94l30.71,6.38c2.65.61,3.73.05,2.53-2.23-.81-1.4-1.61-2.81-2.41-4.21Z"/><path id="Path_695-2-4" data-name="Path 695-2-4" class="cls-4" d="M7.8,17.66,38.15,24l3.19,6.51Z"/></g></g></g></g></g></g><rect class="cls-2" width="64" height="64"/></g></g></svg>